<svg xmlns="http://www.w3.org/2000/svg" xmlns:xlink="http://www.w3.org/1999/xlink" zoomAndPan="magnify" preserveAspectRatio="xMidYMid meet" version="1.0" viewBox="78.47 74.99 360.11 96.02"><defs><clipPath id="id1"><path d="M 363.933594 74.988281 L 401.03125 74.988281 L 401.03125 112.085938 L 363.933594 112.085938 Z M 363.933594 74.988281 " clip-rule="nonzero"/></clipPath></defs><g clip-path="url(#id1)"><path fill="#38b6ff" d="M 382.480469 74.988281 C 372.238281 74.988281 363.933594 83.292969 363.933594 93.535156 C 363.933594 103.78125 372.238281 112.085938 382.480469 112.085938 C 392.726562 112.085938 401.03125 103.78125 401.03125 93.535156 C 401.03125 83.292969 392.726562 74.988281 382.480469 74.988281 " fill-opacity="1" fill-rule="nonzero"/></g><path stroke-linecap="butt" transform="matrix(1.374038, 0, 0, 1.374038, 75.866194, 95.17686)" fill="none" stroke-linejoin="miter" d="M 20.026099 25.32944 C 17.703451 25.32944 15.886839 26.281811 14.584792 28.186553 C 13.282744 30.091294 12.63172 32.718133 12.63172 36.067067 C 12.63172 43.026482 15.278459 46.50619 20.571936 46.50619 C 22.172487 46.50619 23.721867 46.281601 25.222917 45.838109 C 26.723968 45.391774 28.230704 44.854466 29.748812 44.229028 L 29.748812 52.490491 C 26.729654 53.826653 23.318175 54.494734 19.508692 54.494734 C 14.050327 54.494734 9.86558 52.91124 6.954452 49.744251 C 4.043324 46.580105 2.58776 42.003039 2.58776 36.015895 C 2.58776 32.27464 3.292799 28.982564 4.702877 26.148194 C 6.112954 23.310982 8.142784 21.130479 10.789522 19.603842 C 13.436261 18.080049 16.546391 17.315309 20.125601 17.315309 C 24.034586 17.315309 27.770154 18.165336 31.332306 19.862546 L 28.338734 27.558272 C 27.002572 26.929991 25.66641 26.401212 24.330247 25.974778 C 22.996928 25.5455 21.561264 25.32944 20.026099 25.32944 Z M 62.990823 39.92488 C 62.990823 44.510475 61.759848 48.083999 59.295055 50.648293 C 56.827419 53.212587 53.378983 54.494734 48.941219 54.494734 C 44.688243 54.494734 41.302351 53.184158 38.786386 50.563006 C 36.273264 47.939011 35.01386 44.393916 35.01386 39.92488 C 35.01386 35.356342 36.247677 31.808405 38.71247 29.275383 C 41.177263 26.745203 44.637071 25.480113 49.08905 25.480113 C 51.843818 25.480113 54.277339 26.06575 56.38677 27.234182 C 58.499043 28.405456 60.125181 30.082766 61.273712 32.268955 C 62.4194 34.455144 62.990823 37.005223 62.990823 39.92488 Z M 44.836074 39.92488 C 44.836074 42.332815 45.157321 44.166485 45.799816 45.428731 C 46.442311 46.690978 47.522613 47.322102 49.04072 47.322102 C 50.541771 47.322102 51.602172 46.690978 52.219081 45.428731 C 52.838833 44.166485 53.145866 42.332815 53.145866 39.92488 C 53.145866 37.534003 52.833147 35.728762 52.207709 34.509159 C 51.579429 33.286712 50.507656 32.678332 48.992391 32.678332 C 47.505555 32.678332 46.442311 33.283869 45.799816 34.494944 C 45.157321 35.708862 44.836074 37.516945 44.836074 39.92488 Z M 86.191717 54.00007 L 86.191717 38.713805 C 86.191717 36.848864 85.924484 35.444472 85.387176 34.494944 C 84.852712 33.548259 83.991313 33.073495 82.802982 33.073495 C 81.171158 33.073495 79.991355 33.724519 79.266416 35.026566 C 78.541477 36.328614 78.177586 38.563132 78.177586 41.730121 L 78.177586 54.00007 L 68.506046 54.00007 L 68.506046 25.974778 L 75.803766 25.974778 L 77.014841 29.437428 L 77.58342 29.437428 C 78.407861 28.118323 79.550706 27.128994 81.009113 26.469442 C 82.470363 25.809889 84.147673 25.480113 86.043886 25.480113 C 89.142645 25.480113 91.556266 26.378469 93.279062 28.175181 C 95.001859 29.971893 95.863257 32.504915 95.863257 35.768563 L 95.863257 54.00007 Z M 120.127395 54.00007 L 120.127395 38.713805 C 120.127395 36.848864 119.860163 35.444472 119.322855 34.494944 C 118.78839 33.548259 117.926992 33.073495 116.73866 33.073495 C 115.106836 33.073495 113.927034 33.724519 113.202094 35.026566 C 112.477155 36.328614 112.113264 38.563132 112.113264 41.730121 L 112.113264 54.00007 L 102.441724 54.00007 L 102.441724 25.974778 L 109.739444 25.974778 L 110.950519 29.437428 L 111.519099 29.437428 C 112.343539 28.118323 113.486384 27.128994 114.944791 26.469442 C 116.406041 25.809889 118.083351 25.480113 119.979564 25.480113 C 123.081166 25.480113 125.491944 26.378469 127.214741 28.175181 C 128.937537 29.971893 129.798935 32.504915 129.798935 35.768563 L 129.798935 54.00007 Z M 149.906756 54.494734 C 145.24156 54.494734 141.616864 53.252388 139.035512 50.770538 C 136.454161 48.288687 135.166328 44.757807 135.166328 40.172212 C 135.166328 35.438786 136.360345 31.808405 138.751223 29.275383 C 141.1421 26.745203 144.556421 25.480113 148.991343 25.480113 C 153.213047 25.480113 156.476694 26.580315 158.776599 28.780718 C 161.076504 30.983965 162.227878 34.153796 162.227878 38.293056 L 162.227878 42.597205 L 144.934527 42.597205 C 145.002756 44.163642 145.574179 45.391774 146.65448 46.281601 C 147.734781 47.171428 149.207403 47.617763 151.069501 47.617763 C 152.769555 47.617763 154.330306 47.458561 155.757441 47.13447 C 157.184576 46.813223 158.731113 46.264544 160.397051 45.491275 L 160.397051 52.442162 C 158.878943 53.21543 157.312506 53.752738 155.694897 54.048399 C 154.080131 54.346904 152.149803 54.494734 149.906756 54.494734 Z M 149.338176 32.05858 C 148.201017 32.05858 147.248646 32.416785 146.481063 33.136039 C 145.716324 33.852449 145.267146 34.978237 145.133529 36.510559 L 153.446164 36.510559 C 153.41205 35.160182 153.028258 34.079881 152.294791 33.269655 C 151.561323 32.462272 150.574837 32.05858 149.338176 32.05858 Z M 180.453699 54.494734 C 175.870947 54.494734 172.394082 53.258074 170.028791 50.784752 C 167.663499 48.31143 166.478011 44.757807 166.478011 40.123883 C 166.478011 35.472901 167.757315 31.868106 170.313081 29.31234 C 172.868846 26.756575 176.504913 25.480113 181.221282 25.480113 C 184.470715 25.480113 187.529673 26.187995 190.398158 27.606601 L 187.55526 34.756491 C 186.383985 34.244769 185.303684 33.835392 184.314355 33.531202 C 183.325027 33.227011 182.293055 33.073495 181.221282 33.073495 C 179.654845 33.073495 178.44377 33.681875 177.585215 34.904321 C 176.726659 36.123925 176.300225 37.846721 176.300225 40.072711 C 176.300225 44.558804 177.957634 46.801851 181.272454 46.801851 C 184.106824 46.801851 186.827478 45.977411 189.434415 44.32853 L 189.434415 52.021413 C 186.944036 53.670294 183.950464 54.494734 180.453699 54.494734 Z M 208.726324 46.850181 C 210.028371 46.850181 211.589123 46.528933 213.402892 45.886438 L 213.402892 52.936826 C 212.098002 53.496877 210.858498 53.897726 209.678695 54.136529 C 208.498892 54.375333 207.120086 54.494734 205.536592 54.494734 C 202.287159 54.494734 199.944611 53.698723 198.51179 52.1067 C 197.076126 50.51752 196.359716 48.072627 196.359716 44.772022 L 196.359716 33.221326 L 192.968138 33.221326 L 192.968138 29.289597 L 197.272286 26.244853 L 199.771194 20.35721 L 206.105172 20.35721 L 206.105172 25.974778 L 212.982143 25.974778 L 212.982143 33.221326 L 206.105172 33.221326 L 206.105172 44.129527 C 206.105172 45.943296 206.977941 46.850181 208.726324 46.850181 Z M 208.726324 46.850181 " stroke="#38b6ff" stroke-width="1.900001" stroke-opacity="1" stroke-miterlimit="4"/><path stroke-linecap="butt" transform="matrix(1.374038, 0, 0, 1.374038, 75.866194, 95.17686)" fill="none" stroke-linejoin="miter" d="M 218.861257 54.00007 L 218.861257 17.835559 L 228.680628 17.835559 L 228.680628 54.00007 Z M 253.61569 54.00007 L 253.61569 38.713805 C 253.61569 36.848864 253.345615 35.444472 252.81115 34.494944 C 252.273842 33.548259 251.412444 33.073495 250.226955 33.073495 C 248.592288 33.073495 247.415328 33.724519 246.687546 35.026566 C 245.962607 36.328614 245.598716 38.563132 245.598716 41.730121 L 245.598716 54.00007 L 235.927176 54.00007 L 235.927176 25.974778 L 243.224896 25.974778 L 244.438814 29.437428 L 245.007393 29.437428 C 245.831834 28.118323 246.971836 27.128994 248.433086 26.469442 C 249.891493 25.809889 251.568803 25.480113 253.465016 25.480113 C 256.566618 25.480113 258.977396 26.378469 260.703036 28.175181 C 262.425832 29.971893 263.28723 32.504915 263.28723 35.768563 L 263.28723 54.00007 Z M 253.61569 54.00007 " stroke="#38b6ff" stroke-width="1.900001" stroke-opacity="1" stroke-miterlimit="4"/></svg>